<svg width="12" height="15" viewBox="0 0 12 15" fill="none" xmlns="http://www.w3.org/2000/svg">
<path d="M0.0109095 1.44005C0.0109095 1.27278 0.00727317 1.09459 4.50503e-07 0.905504C4.50503e-07 0.716413 0.0327277 0.545504 0.0981823 0.392776C0.156364 0.254594 0.25091 0.156413 0.381819 0.0982308C0.52 0.0327763 0.654546 0.0182308 0.785455 0.0545944C0.916364 0.0764125 1.01818 0.116413 1.09091 0.174594C1.16364 0.232776 1.21455 0.301867 1.24364 0.381867C1.28 0.454594 1.30182 0.541867 1.30909 0.643686C1.31636 0.738231 1.32364 0.832776 1.33091 0.927322C1.40364 0.796413 1.49455 0.690958 1.60364 0.610958C1.71273 0.530958 1.82546 0.465503 1.94182 0.414594C2.05818 0.363685 2.16727 0.327322 2.26909 0.305504C2.37818 0.283685 2.46182 0.272776 2.52 0.272776C2.79636 0.272776 3.06909 0.334594 3.33818 0.458231C3.61455 0.574594 3.84364 0.741867 4.02546 0.960049C4.12727 1.09096 4.20364 1.22914 4.25455 1.37459C4.31273 1.51278 4.35273 1.65823 4.37455 1.81096C4.40364 1.96369 4.42182 2.12005 4.42909 2.28005C4.43636 2.43278 4.44364 2.58914 4.45091 2.74914C4.48727 3.21459 4.48727 3.67641 4.45091 4.13459C4.44364 4.22914 4.44 4.33823 4.44 4.46187C4.44 4.5855 4.42909 4.70914 4.40727 4.83278C4.39273 4.94914 4.36 5.05459 4.30909 5.14914C4.26546 5.23641 4.18909 5.29096 4.08 5.31278C3.92727 5.34914 3.8 5.35641 3.69818 5.33459C3.60364 5.32005 3.52727 5.28732 3.46909 5.23641C3.41091 5.1855 3.36727 5.12005 3.33818 5.04005C3.30909 4.96005 3.28364 4.86914 3.26182 4.76732C3.24727 4.68732 3.23273 4.59641 3.21818 4.49459C3.21091 4.3855 3.20364 4.27641 3.19636 4.16732C3.19636 4.05823 3.19273 3.95278 3.18546 3.85096C3.18546 3.74187 3.18546 3.64369 3.18546 3.55641C3.18546 3.41823 3.18182 3.2655 3.17455 3.09823C3.16727 2.93096 3.16727 2.77459 3.17455 2.62914C3.17455 2.28732 3.08364 2.02914 2.90182 1.85459C2.72727 1.67278 2.48727 1.59641 2.18182 1.6255C1.94909 1.65459 1.74546 1.74914 1.57091 1.90914C1.39636 2.06187 1.31273 2.26187 1.32 2.50914C1.32 2.60369 1.32 2.69096 1.32 2.77096C1.32 2.85096 1.31636 2.93096 1.30909 3.01096C1.30909 3.09096 1.30909 3.17823 1.30909 3.27278C1.30909 3.36732 1.30909 3.47278 1.30909 3.58914C1.30909 3.82914 1.30909 4.08369 1.30909 4.35278C1.30909 4.61459 1.27636 4.82914 1.21091 4.99641C1.15273 5.17096 1.05455 5.29096 0.916364 5.35641C0.778182 5.42187 0.614546 5.40369 0.425455 5.30187C0.345455 5.25823 0.28 5.20005 0.229091 5.12732C0.185455 5.04732 0.149091 4.96369 0.12 4.87641C0.0981823 4.78914 0.0836368 4.70187 0.0763641 4.61459C0.0690914 4.52005 0.0618186 4.43278 0.0545459 4.35278C0.0327277 4.11278 0.0181823 3.89096 0.0109095 3.68732C0.0109095 3.47641 0.0109095 3.25096 0.0109095 3.01096V1.44005ZM7.85685 0.403685C8.09685 0.287322 8.34776 0.203685 8.60957 0.152776C8.87139 0.101867 9.12957 0.0909581 9.38412 0.120049C9.64594 0.14914 9.89685 0.218231 10.1368 0.327322C10.3841 0.436413 10.6096 0.58914 10.8132 0.785504C10.9805 0.952776 11.1259 1.15641 11.2496 1.39641C11.3732 1.62914 11.4641 1.85823 11.5223 2.08369C11.6459 2.48369 11.6641 2.88732 11.5768 3.29459C11.4896 3.70187 11.3405 4.08005 11.1296 4.42914C11.0278 4.58914 10.9005 4.73459 10.7478 4.8655C10.6023 4.98914 10.4459 5.09096 10.2787 5.17096C10.0605 5.27278 9.82412 5.34187 9.56957 5.37823C9.31503 5.42187 9.06776 5.43278 8.82776 5.41096C8.39139 5.38914 8.00594 5.28005 7.67139 5.08369C7.34412 4.88732 7.07867 4.63641 6.87503 4.33096C6.67867 4.0255 6.54776 3.68005 6.4823 3.29459C6.42412 2.90187 6.44957 2.50187 6.55867 2.09459C6.67503 1.65823 6.8423 1.3055 7.06048 1.03641C7.28594 0.760049 7.55139 0.54914 7.85685 0.403685ZM8.18412 1.8655C8.07503 1.96732 7.99139 2.09459 7.93321 2.24732C7.87503 2.40005 7.83867 2.56005 7.82412 2.72732C7.80957 2.88732 7.82048 3.05096 7.85685 3.21823C7.90048 3.37823 7.96594 3.52369 8.05321 3.65459C8.12594 3.76369 8.25685 3.85459 8.44594 3.92732C8.63503 4.00005 8.83139 4.04369 9.03503 4.05823C9.26776 4.07278 9.47139 4.01096 9.64594 3.87278C9.82048 3.72732 9.95139 3.54914 10.0387 3.33823C10.1332 3.12732 10.1768 2.89823 10.1696 2.65096C10.1623 2.40369 10.0968 2.17823 9.97321 1.97459C9.88594 1.82914 9.7623 1.72369 9.6023 1.65823C9.44957 1.5855 9.28594 1.54914 9.11139 1.54914C8.94412 1.54187 8.77685 1.56732 8.60957 1.6255C8.4423 1.67641 8.30048 1.75641 8.18412 1.8655ZM5.91273 11.7928C5.92727 12.0255 5.93455 12.2473 5.93455 12.4582C5.93455 12.6619 5.92727 12.88 5.91273 13.1128C5.91273 13.2 5.91273 13.2982 5.91273 13.4073C5.91273 13.5164 5.90546 13.6219 5.89091 13.7237C5.87636 13.8255 5.85091 13.92 5.81455 14.0073C5.77818 14.0946 5.72364 14.1637 5.65091 14.2146C5.56364 14.2728 5.46546 14.3128 5.35636 14.3346C5.24727 14.3491 5.14546 14.3419 5.05091 14.3128C4.95636 14.2837 4.87273 14.2291 4.8 14.1491C4.73455 14.0691 4.69818 13.9564 4.69091 13.811C4.66909 13.4764 4.65818 13.1419 4.65818 12.8073C4.65818 12.64 4.65455 12.48 4.64727 12.3273C4.64727 12.1746 4.65091 11.96 4.65818 11.6837C4.65818 11.5455 4.64727 11.3891 4.62546 11.2146C4.60364 11.0328 4.54909 10.9055 4.46182 10.8328C4.39636 10.7746 4.32364 10.7419 4.24364 10.7346C4.16364 10.72 4.08364 10.7273 4.00364 10.7564C3.93091 10.7855 3.86546 10.84 3.80727 10.92C3.74909 10.9928 3.70909 11.0873 3.68727 11.2037C3.68727 11.2982 3.68364 11.3964 3.67636 11.4982C3.67636 11.5928 3.68 11.6837 3.68727 11.771C3.69455 12.0037 3.69818 12.2255 3.69818 12.4364C3.69818 12.64 3.69455 12.8582 3.68727 13.091C3.68 13.1855 3.67636 13.2873 3.67636 13.3964C3.68364 13.5055 3.68364 13.6146 3.67636 13.7237C3.66909 13.8255 3.64727 13.92 3.61091 14.0073C3.58182 14.0946 3.52727 14.1637 3.44727 14.2146C3.36 14.2728 3.26546 14.3091 3.16364 14.3237C3.06909 14.331 2.97818 14.3164 2.89091 14.28C2.81091 14.2364 2.73818 14.171 2.67273 14.0837C2.61455 13.9964 2.58182 13.88 2.57455 13.7346C2.56 13.5673 2.54909 13.4146 2.54182 13.2764C2.54182 13.131 2.54182 12.9782 2.54182 12.8182C2.54182 12.651 2.54546 12.48 2.55273 12.3055C2.56 12.1237 2.55636 11.9491 2.54182 11.7819C2.54182 11.731 2.53818 11.6728 2.53091 11.6073C2.53091 11.5346 2.52727 11.4619 2.52 11.3891C2.52 11.3164 2.51273 11.2473 2.49818 11.1819C2.49091 11.1091 2.47636 11.051 2.45455 11.0073C2.39636 10.9055 2.29091 10.84 2.13818 10.811C1.99273 10.7819 1.86909 10.7928 1.76727 10.8437C1.66546 10.8946 1.58909 10.96 1.53818 11.04C1.48727 11.12 1.45091 11.2073 1.42909 11.3019C1.40727 11.3964 1.39636 11.4982 1.39636 11.6073C1.39636 11.7091 1.39636 11.8073 1.39636 11.9019C1.39636 12.3746 1.39636 12.7855 1.39636 13.1346C1.40364 13.4764 1.36727 13.7528 1.28727 13.9637C1.25091 14.0728 1.17455 14.1564 1.05818 14.2146C0.949091 14.2728 0.829091 14.3019 0.698182 14.3019C0.574546 14.3019 0.458182 14.2728 0.349091 14.2146C0.24 14.1564 0.167273 14.0655 0.13091 13.9419C0.109091 13.8619 0.0872732 13.7491 0.065455 13.6037C0.0509096 13.451 0.0400005 13.2837 0.0327277 13.1019C0.025455 12.92 0.0218186 12.7382 0.0218186 12.5564C0.0218186 12.3673 0.0218186 12.1964 0.0218186 12.0437V10.4728C0.0145459 10.3055 0.0109095 10.1237 0.0109095 9.92732C0.0109095 9.73096 0.0400004 9.55278 0.0981823 9.39278C0.149091 9.25459 0.229091 9.16732 0.338182 9.13096C0.447273 9.08732 0.56 9.06914 0.676364 9.07641C0.807273 9.07641 0.909091 9.11278 0.981819 9.1855C1.06182 9.25096 1.12 9.33459 1.15636 9.43641C1.19273 9.53096 1.21455 9.64005 1.22182 9.76369C1.22909 9.88005 1.23636 9.99278 1.24364 10.1019C1.32364 9.92005 1.41818 9.77096 1.52727 9.65459C1.64364 9.53096 1.80727 9.45096 2.01818 9.41459C2.55636 9.31278 2.98546 9.45096 3.30546 9.82914C3.45091 9.68369 3.63636 9.56369 3.86182 9.46914C4.03636 9.40369 4.21455 9.37459 4.39636 9.38187C4.57818 9.38187 4.74909 9.41459 4.90909 9.48005C5.07636 9.5455 5.22546 9.64005 5.35636 9.76369C5.49455 9.88732 5.60364 10.0364 5.68364 10.211C5.79273 10.4437 5.85455 10.7019 5.86909 10.9855C5.88364 11.2691 5.89818 11.5382 5.91273 11.7928ZM10.3639 10.2C10.3639 10.4037 10.3639 10.6328 10.3639 10.8873C10.3712 11.1419 10.3748 11.4073 10.3748 11.6837C10.3748 11.9528 10.3748 12.2219 10.3748 12.491C10.3748 12.7528 10.3712 12.9964 10.3639 13.2219C10.3566 13.331 10.3457 13.451 10.3312 13.5819C10.3166 13.7055 10.2875 13.8219 10.2439 13.931C10.2003 14.04 10.1312 14.131 10.0366 14.2037C9.94935 14.2691 9.82935 14.2982 9.67662 14.291C9.45117 14.2764 9.28753 14.1782 9.18571 13.9964C9.09117 13.8146 9.03662 13.56 9.02207 13.2328C9.02207 13.0655 9.01844 12.8728 9.01117 12.6546C9.01117 12.4364 9.00753 12.2146 9.00026 11.9891C9.00026 11.7637 9.00026 11.5455 9.00026 11.3346C9.00026 11.1164 9.00026 10.92 9.00026 10.7455C9.00026 10.6437 8.99662 10.52 8.98935 10.3746C8.98935 10.2291 8.99298 10.08 9.00026 9.92732C9.00753 9.77459 9.02571 9.62914 9.0548 9.49096C9.08389 9.3455 9.13117 9.2255 9.19662 9.13096C9.24753 9.07278 9.32026 9.02914 9.4148 9.00005C9.50935 8.96369 9.60753 8.9455 9.70935 8.9455C9.81844 8.9455 9.92026 8.96369 10.0148 9.00005C10.1166 9.03641 10.1893 9.08732 10.233 9.15278C10.2621 9.19641 10.2839 9.25823 10.2984 9.33823C10.313 9.41823 10.3239 9.50914 10.3312 9.61096C10.3457 9.7055 10.353 9.80732 10.353 9.91641C10.3603 10.0182 10.3639 10.1128 10.3639 10.2ZM9.94935 7.99641C9.72389 8.05459 9.5348 8.03278 9.38207 7.93096C9.23662 7.82187 9.14571 7.66187 9.10935 7.45096C9.08026 7.29823 9.09117 7.16369 9.14207 7.04732C9.19298 6.93096 9.26935 6.84369 9.37117 6.7855C9.47298 6.72005 9.58935 6.69096 9.72026 6.69823C9.85117 6.7055 9.98207 6.75641 10.113 6.85096C10.2366 6.93823 10.3239 7.04005 10.3748 7.15641C10.433 7.27278 10.4512 7.3855 10.4293 7.49459C10.4148 7.60369 10.3675 7.7055 10.2875 7.80005C10.2075 7.88732 10.0948 7.95278 9.94935 7.99641Z" fill="#176725"/>
</svg>
